# AST/ASF file generated using VICON BodyLanguage
# -----------------------------------------------
:version 1.10
:name VICON
:units
  mass 1.0
  length 0.45
  angle deg
:documentation
   .ast/.asf automatically generated from VICON data using
   VICON BodyBuilder and BodyLanguage model FoxedUp or BRILLIANT.MOD
:root
   order TX TY TZ RX RY RZ
   axis XYZ
   position 0 0 0  
   orientation 0 0 0 
:bonedata
  begin
     id 1 
     name lhipjoint
     direction 0.623415 -0.642378 0.445763 
     length 2.49859 
     axis 0 0 0  XYZ
  end
  begin
     id 2 
     name lfemur
     direction 0.34202 -0.939693 0  
     length 6.69689  
     axis 0 0 20  XYZ
    dof rx ry rz
    limits (-160.0 20.0)
           (-70.0 70.0)
           (-60.0 70.0)
  end
  begin
     id 3 
     name ltibia
     direction 0.34202 -0.939693 0   
     length 7.37574   
     axis 0 0 20   XYZ
    dof rx
    limits (-10.0 170.0)
  end
  begin
     id 4 
     name lfoot
     direction 0.084323 -0.231675 0.969132   
     length 2.09111   
     axis -90 7.62852e-016 20   XYZ
    dof rx rz
    limits (-45.0 90.0)
           (-70.0 20.0)
  end
  begin
     id 5 
     name ltoes
     direction 1.5357e-011 -4.21957e-011 1   
     length 1.04989   
     axis -90 7.62852e-016 20   XYZ
    dof rx
    limits (-90.0 20.0)
  end
  begin
     id 6 
     name rhipjoint
     direction -0.605402 -0.653903 0.45376   
     length 2.45455  
     axis 0 0 0  XYZ 
  end
  begin
     id 7 
     name rfemur
     direction -0.34202 -0.939693 0   
     length 6.64523   
     axis 0 0 -20   XYZ
    dof rx ry rz
    limits (-160.0 20.0)
           (-70.0 70.0)
           (-70.0 60.0)
  end
  begin
     id 8 
     name rtibia
     direction -0.34202 -0.939693 0   
     length 7.3339   
     axis 0 0 -20   XYZ
    dof rx
    limits (-10.0 170.0)
 end
 begin
     id 9 
     name rfoot
     direction -0.120854 -0.332043 0.93549   
     length 2.23135  
     axis -90 -7.62852e-016 -20   XYZ
    dof rx rz
    limits (-45.0 90.0)
           (-20.0 70.0)
  end
  begin
     id 10 
     name rtoes
     direction -1.53563e-011 -4.21914e-011 1   
     length 1.10614   
     axis -90 -7.62852e-016 -20   XYZ
    dof rx
    limits (-90.0 20.0)
  end
  begin
     id 11 
     name lowerback
     direction 0.0319682 0.998615 -0.0417941   
     length 2.02718   
     axis 0 0 0   XYZ
    dof rx ry rz
    limits (-20.0 45.0)
           (-30.0 30.0)
           (-30.0 30.0)
  end
  begin
     id 12 
     name upperback
     direction 7.63181e-005 0.995808 0.0914691   
     length 1.97539   
     axis 0 0 0   XYZ
    dof rx ry rz
    limits (-20.0 45.0)
           (-30.0 30.0)
           (-30.0 30.0)
  end
  begin
     id 13 
     name thorax
     direction -0.016423 0.993627 0.111514   
     length 2.00349   
     axis 0 0 0   XYZ
    dof rx ry rz
    limits (-20.0 45.0)
           (-30.0 30.0)
           (-30.0 30.0)
  end
  begin
     id 14 
     name lowerneck
     direction -0.174763 0.981668 -0.0760716   
     length 1.71436   
     axis 0 0 0   XYZ
    dof rx ry rz
    limits (-20.0 45.0)
           (-30.0 30.0)
           (-30.0 30.0)
  end
  begin
     id 15 
     name upperneck
     direction 0.345458 0.934587 -0.0848868   
     length 1.72805   
     axis 0 0 0   XYZ
    dof rx ry rz
    limits (-20.0 45.0)
           (-30.0 30.0)
           (-30.0 30.0)
  end
  begin
     id 16
     name head
     direction 0.13001 0.989848 -0.0574291  
     length 1.767  
     axis 0 0 0   XYZ
    dof rx ry rz
    limits (-20.0 45.0)
           (-30.0 30.0)
           (-30.0 30.0)
  end
  begin
     id 17 
     name lclavicle
     direction 0.952951 0.290122 0.0878234  
     length 3.54654  
     axis 0 0 0   XYZ
    dof ry rz
    limits (-20.0 10.0)
           (0.0 20.0)
  end
  begin
     id 18 
     name lhumerus
     direction 1 -4.48957e-011 -4.56525e-028   
     length 5.19807   
     axis 180 -30 -90   XYZ
    dof rx ry rz
    limits (-60.0 90.0)
           (-90.0 90.0)
           (-90.0 90.0)
  end
  begin
     id 19
     name lradius
     direction 1 -4.48979e-011 -2.0317e-027   
     length 3.0937   
     axis 180 -30 -90   XYZ
    dof rx
    limits (-10.0 170.0)
  end
  begin
     id 20
     name lwrist
     direction 1 -4.48953e-011 -3.05809e-027   
     length 1.54685   
     axis 8.48514e-016 90 90   XYZ
    dof ry
    limits (-180.0 0.0)
 end
  begin
     id 21 
     name lhand
     direction 1 -4.48952e-011 -6.11639e-027   
     length 0.672632   
     axis 3.9013e-015 90 90   XYZ
    dof rx rz
    limits (-90.0 90.0)
           (-45.0 45.0)
  end
  begin
     id 22 
     name lfingers
     direction 1 -4.48925e-011 -1.22426e-026   
     length 0.542293   
     axis 7.80276e-015 90 90   XYZ
    dof rx
    limits (0.0 90.0)
  end
  begin
     id 23
     name lthumb
     direction 0.707107 -6.3486e-011 0.707107   
     length 0.778628   
     axis -90 45 5.37419e-014   XYZ
    dof rx rz
    limits (-45.0 45.0)
           (-45.0 45.0)
  end
  begin
     id 24 
     name rclavicle
     direction -0.960732 0.273675 -0.0457849   
     length 3.52079  
     axis 0 0 0   XYZ 
    dof ry rz
    limits (-10.0 20.0)
           (-20.0 0.0)
  end
  begin
     id 25 
     name rhumerus
     direction -1 -4.48976e-011 -1.63613e-027  
     length 5.45222   
     axis 180 30 90   XYZ
    dof rx ry rz
    limits (-90.0 60.0)
           (-90.0 90.0)
           (-90.0 90.0)
  end
  begin
     id 26 
     name rradius
     direction -1 -4.48957e-011 -7.00033e-028   
     length 3.01284   
     axis 180 30 90   XYZ
    dof rx
    limits (-10.0 170.0)
  end
  begin
     id 27 
     name rwrist
     direction -1 -4.48983e-011 -3.05543e-027   
     length 1.50642   
     axis 8.48514e-016 -90 -90   XYZ
    dof ry
    limits (-180.0 0.0)
  end
  begin
     id 28
     name rhand
     direction -1 -4.48984e-011 -6.11072e-027   
     length 0.622296   
     axis 3.9013e-015 -90 -90   XYZ
    dof rx rz
    limits (-90.0 90.0)
           (-45.0 45.0)
  end
  begin
     id 29
     name rfingers
     direction -1 -4.48865e-011 -1.22637e-026   
     length 0.501711   
     axis 7.80276e-015 -90 -90   XYZ
    dof rx
    limits (0.0 90.0)
  end
  begin
     id 30
     name rthumb
     direction -0.707107 -6.34932e-011 0.707107   
     length 0.72036   
     axis -90 -45 -5.37419e-014   XYZ
    dof rx rz
    limits (-45.0 45.0)
           (-45.0 45.0)
  end
:hierarchy
  begin
    root lhipjoint rhipjoint lowerback
    lhipjoint lfemur
    lfemur ltibia
    ltibia lfoot
    lfoot ltoes
    rhipjoint rfemur
    rfemur rtibia
    rtibia rfoot
    rfoot rtoes
    lowerback upperback
    upperback thorax
    thorax lowerneck lclavicle rclavicle
    lowerneck upperneck
    upperneck head
    lclavicle lhumerus
    lhumerus lradius
    lradius lwrist
    lwrist lhand lthumb
    lhand lfingers
    rclavicle rhumerus
    rhumerus rradius
    rradius rwrist
    rwrist rhand rthumb
    rhand rfingers
  end

#!OML:ASF H:\Not Pregnant\Project 1\Capture day 1\Session 1\non-pregnant.ASF
:FULLY-SPECIFIED
:DEGREES
1080
root 7.72331 15.7242 27.8866 148.383 -83.2173 -132.871
lowerback -3.48414 3.53681 3.22423
upperback -9.68343 4.42813 0.271083
thorax -7.98454 1.80099 -1.6295
lowerneck 12.1783 -10.3151 -31.5075
upperneck -1.96885 -20.2915 38.6139
head 5.49836 -11.7881 18.4047
rclavicle 1.58034e-014 6.55989e-015
rhumerus -57.2485 -40.4974 -19.3419
rradius 29.9505
rwrist 37.7514
rhand -30.9596 -1.36881
rfingers 7.12502
rthumb -4.24408 -31.3063
lclavicle 1.58034e-014 6.55989e-015
lhumerus -50.5987 14.5059 23.9405
lradius 35.5745
lwrist 25.3763
lhand -16.7133 -4.00466
lfingers 7.12502
lthumb 9.51201 25.7607
rfemur -32.3813 -2.00238 27.7082
rtibia 38.3935
rfoot -22.0158 9.79442
rtoes -13.6687
lfemur -30.4165 14.4925 -22.9132
ltibia 36.4766
lfoot -19.8118 -15.3983
ltoes 12.4635
1081
root 7.71971 15.7261 27.8801 147.862 -83.2047 -132.362
lowerback -3.53678 3.53243 3.30276
upperback -9.67354 4.4216 0.299009
thorax -7.94032 1.79398 -1.63963
lowerneck 12.1783 -10.2989 -31.5013
upperneck -1.92772 -20.2769 38.6051
head 5.50129 -11.7804 18.4053
rclavicle 4.19933e-015 3.77691e-015
rhumerus -57.4947 -40.1302 -20.4311
rradius 29.9676
rwrist 37.1505
rhand -31.0572 -1.50221
rfingers 7.12502
rthumb -4.33835 -31.4378
lclavicle 4.19933e-015 3.77691e-015
lhumerus -51.1682 14.3136 24.8645
lradius 35.7497
lwrist 25.6414
lhand -16.7036 -4.19534
lfingers 7.12502
lthumb 9.52137 25.5695
rfemur -32.3113 -2.23999 27.852
rtibia 38.3103
rfoot -22.0612 9.9698
rtoes -13.5203
lfemur -30.3652 14.4666 -22.814
ltibia 36.4534
lfoot -19.8329 -15.4207
ltoes 12.4438
1082
root 7.71633 15.7276 27.8735 147.301 -83.1691 -131.822
lowerback -3.57897 3.53035 3.38673
upperback -9.66264 4.41926 0.337472
thorax -7.90139 1.78902 -1.64247
lowerneck 12.1739 -10.2831 -31.4932
upperneck -1.8771 -20.2619 38.5866
head 5.50546 -11.7713 18.4002
rclavicle -5.1684e-015 -6.75868e-015
rhumerus -57.6818 -39.7347 -21.5883
rradius 29.9755
rwrist 36.5094
rhand -31.044 -1.65289
rfingers 7.12502
rthumb -4.32562 -31.5887
lclavicle -5.1684e-015 -6.75868e-015
lhumerus -51.7438 14.1489 25.7962
lradius 35.9273
lwrist 25.9256
lhand -16.637 -4.38072
lfingers 7.12502
lthumb 9.58563 25.3812
rfemur -32.2343 -2.44192 28.0125
rtibia 38.231
rfoot -22.1047 10.1168
rtoes -13.3912
lfemur -30.3064 14.4518 -22.6919
ltibia 36.4321
lfoot -19.855 -15.4405
ltoes 12.4255
1083
root 7.71312 15.7289 27.8671 146.999 -83.1416 -131.546
lowerback -3.6161 3.5287 3.43345
upperback -9.65187 4.41712 0.372901
thorax -7.86785 1.78675 -1.62834
lowerneck 12.1665 -10.2677 -31.4836
upperneck -1.81565 -20.2474 38.5569
head 5.51115 -11.7611 18.3887
rclavicle -1.05356e-014 1.03368e-014
rhumerus -57.8156 -39.3153 -22.7943
rradius 29.9746
rwrist 35.8397
rhand -30.9084 -1.78915
rfingers 7.12502
rthumb -4.19467 -31.7276
lclavicle -1.05356e-014 1.03368e-014
lhumerus -52.3187 14.011 26.739
lradius 36.1017
lwrist 26.2346
lhand -16.5218 -4.55128
lfingers 7.12502
lthumb 9.69679 25.2055
rfemur -32.1639 -2.6226 28.1381
rtibia 38.1674
rfoot -22.1517 10.2555
rtoes -13.2601
lfemur -30.2371 14.4457 -22.6023
ltibia 36.3985
lfoot -19.8738 -15.4605
ltoes 12.4198
1084
root 7.70932 15.7302 27.8609 146.979 -83.1444 -131.561
lowerback -3.6552 3.52145 3.4302
upperback -9.63861 4.40657 0.401882
thorax -7.8337 1.78392 -1.5931
lowerneck 12.1566 -10.2515 -31.4784
upperneck -1.74299 -20.2323 38.5165
head 5.51878 -11.7495 18.3725
rclavicle 6.99474e-014 1.41137e-014
rhumerus -57.9122 -38.8801 -24.0217
rradius 29.9683
rwrist 35.1773
rhand -30.6635 -1.87032
rfingers 7.12502
rthumb -3.95824 -31.8133
lclavicle 6.99474e-014 1.41137e-014
lhumerus -52.8959 13.8932 27.703
lradius 36.2758
lwrist 26.5829
lhand -16.3685 -4.68985
lfingers 7.12502
lthumb 9.84465 25.06
rfemur -32.0972 -2.82414 28.2144
rtibia 38.1271
rfoot -22.219 10.4083
rtoes -13.1352
lfemur -30.1468 14.4682 -22.5699
ltibia 36.3425
lfoot -19.8834 -15.5175
ltoes 12.451
1085
root 7.70536 15.7316 27.8547 147.27 -83.1705 -131.887
lowerback -3.69991 3.51369 3.37904
upperback -9.62715 4.39397 0.421079
thorax -7.80084 1.78316 -1.54141
lowerneck 12.1481 -10.2352 -31.4756
upperneck -1.66151 -20.219 38.4691
head 5.52836 -11.7383 18.3532
rclavicle 3.84773e-014 9.34288e-015
rhumerus -58.0105 -38.462 -25.2194
rradius 29.9562
rwrist 34.5821
rhand -30.3552 -1.85288
rfingers 7.12502
rthumb -3.66048 -31.8012
lclavicle 3.84773e-014 9.34288e-015
lhumerus -53.4631 13.7722 28.7072
lradius 36.4531
lwrist 26.9993
lhand -16.235 -4.80499
lfingers 7.12502
lthumb 9.97342 24.9387
rfemur -32.0484 -3.02484 28.2429
rtibia 38.1139
rfoot -22.2973 10.5666
rtoes -12.9966
lfemur -30.0463 14.5158 -22.5907
ltibia 36.2589
lfoot -19.8739 -15.599
ltoes 12.5309
1086
root 7.7013 15.733 27.8485 147.884 -83.2179 -132.534
lowerback -3.75051 3.50508 3.27745
upperback -9.61949 4.37896 0.433037
thorax -7.77171 1.78441 -1.46928
lowerneck 12.1417 -10.2181 -31.4796
upperneck -1.56828 -20.2084 38.416
head 5.54176 -11.7282 18.3322
rclavicle 4.00054e-015 -1.43125e-014
rhumerus -58.129 -38.0742 -26.3614
rradius 29.9416
rwrist 34.097
rhand -29.9878 -1.73492
rfingers 7.12502
rthumb -3.30566 -31.689
lclavicle 4.00054e-015 -1.43125e-014
lhumerus -54.0275 13.6466 29.7586
lradius 36.6369
lwrist 27.4761
lhand -16.1377 -4.89237
lfingers 7.12502
lthumb 10.0673 24.8468
rfemur -32.018 -3.23519 28.2268
rtibia 38.1217
rfoot -22.3873 10.7369
rtoes -12.8645
lfemur -29.9396 14.5745 -22.6621
ltibia 36.1542
lfoot -19.85 -15.6955
ltoes 12.6452
1087
root 7.69706 15.7343 27.8416 148.718 -83.2714 -133.408
lowerback -3.79767 3.49862 3.13983
upperback -9.61222 4.36653 0.437397
thorax -7.74673 1.78922 -1.38557
lowerneck 12.1411 -10.2022 -31.4749
upperneck -1.46717 -20.203 38.3612
head 5.55692 -11.7213 18.3083
rclavicle -1.78906e-014 1.74931e-014
rhumerus -58.2916 -37.7323 -27.432
rradius 29.9213
rwrist 33.7501
rhand -29.5918 -1.52981
rfingers 7.12502
rthumb -2.92327 -31.4895
lclavicle -1.78906e-014 1.74931e-014
lhumerus -54.5748 13.5061 30.8564
lradius 36.8235
lwrist 27.985
lhand -16.1016 -4.96413
lfingers 7.12502
lthumb 10.1022 24.7734
rfemur -31.9841 -3.4354 28.1832
rtibia 38.141
rfoot -22.4771 10.9046
rtoes -12.7111
lfemur -29.8177 14.6557 -22.7584
ltibia 36.0386
lfoot -19.8169 -15.8154
ltoes 12.8006
1088
root 7.69318 15.7354 27.8346 149.52 -83.3067 -134.249
lowerback -3.84216 3.50298 3.01977
upperback -9.60883 4.36857 0.433582
thorax -7.72515 1.79937 -1.32067
lowerneck 12.1524 -10.1909 -31.4536
upperneck -1.3645 -20.2081 38.3121
head 5.57345 -11.7214 18.2828
rclavicle -1.3008e-014 -5.1684e-015
rhumerus -58.5056 -37.4328 -28.4469
rradius 29.8983
rwrist 33.5322
rhand -29.2406 -1.30771
rfingers 7.12502
rthumb -2.58411 -31.2718
lclavicle -1.3008e-014 -5.1684e-015
lhumerus -55.0819 13.3387 32.0076
lradius 37.0049
lwrist 28.5006
lhand -16.1221 -5.02199
lfingers 7.12502
lthumb 10.0823 24.7165
rfemur -31.9527 -3.63389 28.1559
rtibia 38.1591
rfoot -22.5608 11.0842
rtoes -12.5385
lfemur -29.699 14.7234 -22.8338
ltibia 35.9275
lfoot -19.783 -15.9122
ltoes 12.9503
1089
root 7.68936 15.7364 27.828 150.254 -83.3291 -135.027
lowerback -3.88205 3.51116 2.92441
upperback -9.60617 4.37598 0.424255
thorax -7.70474 1.81009 -1.27556
lowerneck 12.1703 -10.18 -31.4218
upperneck -1.25466 -20.219 38.2694
head 5.59292 -11.7259 18.2585
rclavicle -2.19409e-014 -7.55382e-015
rhumerus -58.7419 -37.1669 -29.4301
rradius 29.8637
rwrist 33.401
rhand -28.9207 -1.05539
rfingers 7.12502
rthumb -2.27516 -31.023
lclavicle -2.19409e-014 -7.55382e-015
lhumerus -55.5705 13.1739 33.1802
lradius 37.1821
lwrist 28.9743
lhand -16.1625 -5.06032
lfingers 7.12502
lthumb 10.0433 24.68
rfemur -31.9076 -3.79213 28.1298
rtibia 38.1682
rfoot -22.6383 11.2348
rtoes -12.3931
lfemur -29.5762 14.7541 -22.8867
ltibia 35.8295
lfoot -19.7694 -15.9569
ltoes 13.0155
1090
root 7.68603 15.7371 27.8222 150.748 -83.3219 -135.558
lowerback -3.92081 3.52613 2.88845
upperback -9.6076 4.39275 0.412956
thorax -7.68486 1.82076 -1.26556
lowerneck 12.1903 -10.1693 -31.3777
upperneck -1.13797 -20.2332 38.2328
head 5.61476 -11.733 18.2349
rclavicle -3.85145e-015 6.95746e-015
rhumerus -58.9896 -36.9275 -30.411
rradius 29.8246
rwrist 33.3021
rhand -28.608 -0.799268
rfingers 7.12502
rthumb -1.97317 -30.7699
lclavicle -3.85145e-015 6.95746e-015
lhumerus -56.0341 13.011 34.3719
lradius 37.3481
lwrist 29.4016
lhand -16.1947 -5.07282
lfingers 7.12502
lthumb 10.0124 24.669
rfemur -31.8647 -3.96134 28.1474
rtibia 38.1642
rfoot -22.7207 11.4157
rtoes -12.2715
lfemur -29.466 14.7341 -22.8877
ltibia 35.7497
lfoot -19.7752 -15.9303
ltoes 12.9904
